<?xml version="1.0" encoding="iso-8859-1"?>
<!-- Uploaded to: SVG Repo, www.svgrepo.com, Generator: SVG Repo Mixer Tools -->
<svg height="800px" width="800px" version="1.1" id="Layer_1" xmlns="http://www.w3.org/2000/svg" xmlns:xlink="http://www.w3.org/1999/xlink" 
	 viewBox="0 0 512 512" xml:space="preserve">
<path style="fill:#FFE14D;" d="M256,512C114.837,512,0,397.157,0,256S114.837,0,256,0s256,114.843,256,256S397.163,512,256,512z"/>
<path style="fill:#FFCC33;" d="M512,256C512,114.843,397.163,0,256,0v512C397.163,512,512,397.157,512,256z"/>
<path style="fill:#FF9F19;" d="M256,33.391C133.25,33.391,33.391,133.256,33.391,256S133.25,478.609,256,478.609
	S478.609,378.744,478.609,256S378.75,33.391,256,33.391z M256,445.217c-104.337,0-189.217-84.881-189.217-189.217
	S151.663,66.783,256,66.783S445.217,151.663,445.217,256S360.337,445.217,256,445.217z"/>
<path style="fill:#F28618;" d="M445.217,256c0,104.337-84.881,189.217-189.217,189.217v33.391
	c122.75,0,222.609-99.864,222.609-222.609S378.75,33.391,256,33.391v33.391C360.337,66.783,445.217,151.663,445.217,256z"/>
<path style="fill:#FF9F19;" d="M317.217,300.522c0,27.937-18.922,51.534-44.522,58.88v7.903c0,9.238-7.456,16.696-16.696,16.696
	s-16.696-7.457-16.696-16.696v-7.903c-25.6-7.346-44.522-30.943-44.522-58.88c0-9.238,7.456-16.696,16.696-16.696
	c9.239,0,16.696,7.457,16.696,16.696c0,15.36,12.466,27.826,27.826,27.826s27.826-12.466,27.826-27.826
	c0-0.779-0.111-1.224-0.223-1.558c-1.336-8.682-13.802-16.473-27.603-24.042c-2.56-1.337-5.231-2.783-7.791-4.119
	c-23.82-12.576-53.426-28.27-53.426-59.324c0-27.937,18.922-51.534,44.522-58.88v-7.903c0-9.238,7.456-16.696,16.696-16.696
	s16.696,7.457,16.696,16.696v7.903c25.6,7.346,44.522,30.943,44.522,58.88c0,9.238-7.456,16.696-16.696,16.696
	s-16.696-7.457-16.696-16.696c0-15.36-12.466-27.826-27.826-27.826s-27.826,12.466-27.826,27.826c0,9.238,13.133,17.586,27.826,25.6
	c2.56,1.336,5.231,2.783,7.791,4.118C287.612,253.774,317.217,269.468,317.217,300.522z"/>
<g>
	<path style="fill:#F28618;" d="M317.217,300.522c0,27.937-18.922,51.534-44.522,58.88v7.903c0,9.238-7.456,16.696-16.696,16.696
		v-55.652c15.36,0,27.826-12.466,27.826-27.826c0-0.779-0.111-1.224-0.223-1.558c-1.336-8.682-13.802-16.473-27.603-24.042v-37.843
		c2.56,1.336,5.231,2.783,7.791,4.118C287.612,253.774,317.217,269.468,317.217,300.522z"/>
	<path style="fill:#F28618;" d="M283.826,211.478c0,9.223,7.479,16.696,16.696,16.696c9.217,0,16.696-7.473,16.696-16.696
		c0-27.961-18.869-51.551-44.522-58.843v-7.939c0-9.223-7.479-16.696-16.696-16.696v55.652
		C271.348,183.652,283.826,196.136,283.826,211.478z"/>
</g>
</svg>