<!DOCTYPE svg PUBLIC "-//W3C//DTD SVG 1.1//EN" "http://www.w3.org/Graphics/SVG/1.1/DTD/svg11.dtd">
<!-- Uploaded to: SVG Repo, www.svgrepo.com, Transformed by: SVG Repo Mixer Tools -->
<svg width="800px" height="800px" viewBox="0 0 24 24" fill="none" xmlns="http://www.w3.org/2000/svg">
<g id="SVGRepo_bgCarrier" stroke-width="0"/>
<g id="SVGRepo_tracerCarrier" stroke-linecap="round" stroke-linejoin="round"/>
<g id="SVGRepo_iconCarrier"> <path fill-rule="evenodd" clip-rule="evenodd" d="M3.96973 5.03039L18.9697 20.0304L20.0304 18.9697L5.03039 3.96973L3.96973 5.03039ZM2.92454 9.67478C3.71079 8.88852 4.57369 8.2256 5.48917 7.68602L6.58987 8.78672C5.86769 9.17925 5.17917 9.65606 4.53875 10.2172L11.9999 17.5283L13.6826 15.8795L14.7433 16.9402L11.9999 19.6284L2.38879 10.2105L2.92454 9.67478ZM19.4611 10.2172L15.8255 13.7797L16.8862 14.8404L21.611 10.2105L21.0753 9.67478C17.6588 6.25827 12.7953 5.17059 8.45752 6.41173L9.69662 7.65083C13.0757 6.95288 16.7117 7.80832 19.4611 10.2172Z" fill="#e6e6e6"/> </g>
</svg>